<?xml version="1.0" encoding="utf-8"?>
<!-- Generator: Adobe Illustrator 26.2.1, SVG Export Plug-In . SVG Version: 6.00 Build 0)  -->
<svg version="1.1" id="a" xmlns="http://www.w3.org/2000/svg" xmlns:xlink="http://www.w3.org/1999/xlink" x="0px" y="0px"
	 viewBox="0 0 542.9 129.8" style="fill: #ffffff;" xml:space="preserve">
<path d="M157.4,61.1c-1.4,0.1-1.9,1-2.4,1.8c-3.1,5.4-6.2,10.7-9.3,16.1c-0.8,1.4-1.6,2.9-2.5,4.3c-1.6,2.7-3.1,5.6-3.7,8.7
	c-0.2,1-0.7,2-1.3,2.8c-1,1.5-2.4,2-4.1,1.6c-2.5-0.6-4.7-1.7-6.6-3.5c-1.2-1.2-2.4-2.3-3.6-3.5c-0.8-0.8-1.6-1.1-2.7-0.8
	c-1,0.2-2.1,0.4-3.1,0.6c-2.4,0.5-4.5,1.4-6.2,3.3c-1.1,1.3-2.6,2.3-3.9,3.3c-3.8,2.8-7.9,3.6-12.5,2.6C93.2,98,91,97.2,88.9,96
	C82,92,79,85.2,81.2,77.5c0.6-2.2,1.6-4.4,2.5-6.5c2.7-6.4,5.8-12.6,9.8-18.3c3.9-5.6,8.8-10.2,14.5-13.9c4.3-2.8,8.5-2,11.6,0.9
	c1.3,1.2,2.7,1.6,4.5,1.5c3.7-0.3,5.9,1.3,7,4.4c0.4,1.2,0.6,2.5,0.8,3.8c0.1,0.7,0.3,1.4,0.4,2.3c1.1-0.8,1.9-1.7,2.3-2.9
	c0.7-1.8,1.3-3.7,2-5.5c0.3-0.8,0.6-1.5,0.9-2.2c1-1.9,2.5-2.5,4.4-1.6c3.2,1.6,6.3,3.2,9.1,5.5c2.4,2,3.1,4.3,2,7.2
	c-0.4,1-0.7,2.1-1.1,3.3c1.4,0.2,2.2-0.4,2.8-1.3c1.3-1.7,2.5-3.5,3.8-5.2c0.8-1.1,1.7-2.3,2.7-3.2c2.5-2.3,5.7-2.7,8.7-1
	c1.2,0.7,2.4,1.6,3.3,2.6c1.6,1.8,3.2,3.7,4.6,5.7c1.9,2.6,2.1,5.6,1.2,8.6c-0.9,3.1-2.1,6.1-3.4,9.1c-2.7,6.3-6.1,12.3-10,18
	c-1.9,2.8-3.1,5.9-4.7,8.9c-0.1,0.2-0.1,0.5-0.1,1c0.6-0.1,1.2,0,1.6-0.2c0.7-0.4,1.4-0.9,2.1-1.5c5.8-5.5,9.6-12.2,12.3-19.6
	c4.1-11.1,8.1-22.2,12.2-33.3c0.4-1.2,0.9-2.3,1.4-3.4c0.9-1.6,2.1-2,3.9-1.6c0.5,0.1,1,0.2,1.4,0.4c2.7,1.5,5.4,3,8,4.5
	c0.6,0.4,1.2,0.9,1.7,1.4c1.6,1.7,1.8,3.3,0.8,5.4c-0.6,1.5-1.2,2.9-1.8,4.4c-0.1,0.3,0,0.7,0,1.2c1.1-0.4,1.7-1.2,2.3-1.9
	c2.4-2.9,4.7-5.8,7.2-8.6c1-1.1,2.1-2,3.3-2.9c2-1.4,4.2-1.6,6.5-0.8c4.9,1.8,8.2,5.3,10.2,10c0.9,2.2,0.3,4.2-0.6,6.2
	c-1.4,3-2.8,5.9-4.2,8.8c-2.6,5.3-5.2,10.7-7.9,16c-1.4,2.7-1.6,5.8-2.2,8.7c0,0.2,0.2,0.4,0.3,0.7c1.6-0.2,2.6-1.2,3.5-2.3
	c2-2.6,3.7-5.5,4.8-8.6c3.2-9,7.8-17.4,12.1-26c1.9-3.8,3.5-7.7,5.3-11.5c0.5-1.1,1.1-2.2,1.8-3.2c1.1-1.5,2.7-2,4.5-1.8
	c4.2,0.5,7.7,2.4,10.8,5.1c2.2,2,3,4.3,1.9,7.1c-1.1,2.8-2.3,5.5-3.7,8.2c-3.1,6.1-6.3,12.2-9.5,18.3c-0.4,0.8-1.1,1.7-0.7,2.9
	c1.4-0.2,2.2-1,3-2.1c3-4.4,5.9-8.7,8.9-13.1c4-5.8,7.9-11.7,11.9-17.5c1.2-1.8,2.7-3.5,4.1-5.2c1.3-1.5,2.9-1.9,4.8-1
	c4.6,2,7.8,5.1,9.5,9.9c0.5,1.6,0.5,3.1-0.1,4.6c-3.8,8.7-7.6,17.4-11.4,26.1c-1.5,3.5-3.2,6.9-4.8,10.3c-0.8,1.7-0.5,2.8,1,3.8
	c0.9,0.6,1.8,1.1,2.7,1.6c3,1.7,5.1,4.2,6.8,7.1c1.6,2.7,1,5.3-0.4,7.8c-0.8,1.4-2.2,1.6-3.5,0.6c-0.5-0.4-1-0.9-1.4-1.5
	c-1.7-2.2-3.3-4.4-5-6.6c-0.5-0.6-0.9-1.2-1.4-1.7c-1.3-1.3-2.6-1.5-4.1-0.3c-0.7,0.6-1.3,1.3-1.8,2c-2.9,3.9-5.6,7.9-8.7,11.7
	c-3.2,4-7.1,7.3-11.6,9.7c-3.6,1.8-7.4,3-11.5,2.8c-0.9-0.1-1.7-0.1-2.5-0.4c-3.4-0.9-6.7-1.8-10-2.9c-2.4-0.8-4.4-2.2-6.1-4
	c-2.5-2.8-2.7-5.4-0.7-8.5c1.6-2.5,3.6-4.6,6-6.4c4.6-3.4,9.4-6.4,15-7.9c0.8-0.2,1.6-0.4,2.7-0.7c-0.5-0.3-0.9-0.6-1.3-0.9
	c-2.9-2-5.8-3.9-8.6-5.9c-1.9-1.4-2.5-1.4-4.3,0.3c-2.1,1.9-4.1,3.8-6.2,5.8c-1.8,1.7-3.8,2.3-6.1,1.4c-3.5-1.4-6.8-3.2-9.3-6
	c-2.9-3.2-3.7-7.1-3.1-11.3c0.6-4.4,1.9-8.6,3.7-12.6c0.9-1.9,1.8-3.8,2.6-5.7c0.4-0.8,0.5-1.7,0.8-2.8c-1.6,0.3-2.3,1.2-2.8,2.2
	c-2.2,4.1-4.4,8.1-6.5,12.2c-3.8,7.2-7.6,14.4-11.3,21.7c-1.5,2.9-3.8,4.7-6.9,5.6c-2,0.6-4,0.9-6,0.2c-1-0.4-2-0.9-2.9-1.4
	c-0.5-0.3-0.9-0.8-1.4-1.2c-2.2-1.8-2.4-1.9-4.7,0c-1.3,1.1-2.4,2.4-3.7,3.6c-0.9,0.9-1.9,1.8-2.9,2.5c-1.3,0.9-2.6,0.6-3.7-0.3
	c-0.5-0.4-1-0.9-1.4-1.5c-2.9-4.3-5.1-8.9-5.9-14.1c-0.4-2.9,0-5.6,0.7-8.4c1.7-6.2,3.8-12.2,6.2-18C157,63.1,157.6,62.3,157.4,61.1
	L157.4,61.1z M247.6,103.2c-0.9,0.2-1.5,0.2-1.9,0.3c-3.3,1.2-6.7,2.4-9.9,3.8c-4.5,1.9-8.4,4.8-11.7,8.4c-1.9,2.1-1.4,4.3,1.2,5.4
	c1.5,0.7,3.2,0.9,4.8,0.6c2.7-0.5,5-1.8,7-3.7c3.6-3.4,6.3-7.5,9.1-11.5C246.8,105.6,247,104.5,247.6,103.2L247.6,103.2z
	 M101.9,92.4c3.2-0.9,4.3-1.5,5.6-2.9c0.9-1,1.3-2.2,0.7-3.5c-1.6-3.6-2.1-7.4-2.2-11.3c0-0.4-0.2-0.8-0.3-1.5
	c-0.7,0.9-1.3,1.4-1.6,2.1c-2.1,4.6-3.4,9.4-3.4,14.6C100.6,90.9,101,91.7,101.9,92.4L101.9,92.4z M115.3,77.2
	c0.4-0.7,0.8-1.3,1.2-2c2.5-4.5,4.7-9,5.5-14.1c0.2-1.1,0.5-2.2,0-3.4c-1.2,0.2-2.1,0.6-2.5,1.7c-1.2,3.3-2.5,6.5-3.6,9.8
	C115.1,71.8,114.7,74.5,115.3,77.2L115.3,77.2z"/>
<path d="M305.3,81.6c0.6,1.2,1.2,2.4,1.9,3.7c1.1-1.2,21.2-46.9,22.7-51.5c-1.7,0-3.1,0.6-4.4,1.3c-0.5,0.3-1,0.7-1.6,1
	c-1.7,0.8-3.1,0.6-4.2-0.9c-2.6-3.8-5.2-7.6-7-11.9c-1.3-3.3,0.2-5.6,3.7-5.9c2-0.2,4-0.2,6-0.4c4-0.4,7.9-0.9,11.8-1.3
	c1.5-0.2,2.9-0.3,4.4-0.5c6-0.6,12-0.5,18,0c10.4,0.9,19.6,4.7,27.4,11.7c6.7,6,9.3,13.6,8.3,22.5c-0.5,4.4-1.8,8.5-3.8,12.4
	c-7.5,15.1-18.3,27.2-32.4,36.4c-5.7,3.7-11.9,6.2-18.5,8c-3.1,0.9-6.2,0.8-9.3,0.3c-2.4-0.4-4.8-0.8-7.2-1.4
	c-1.2-0.3-2.4-0.7-3.5-1.1c-2.1-0.8-4.1-1.6-6.2-2.4c-3.1-1.2-5.4-3.3-6.9-6.3c-1.4-3-2.1-6.1-2.1-9.4
	C302.6,84.1,303.4,82.7,305.3,81.6L305.3,81.6z M327,89.3c1.3,0,2.3,0.1,3.3,0c4.5-0.3,8.7-1.3,12.4-4c4.4-3.2,8.9-6.3,13.1-9.7
	c7-5.5,13-12,17.5-19.7c2.3-4,4.5-8.2,5.3-12.8c1-6.1-1.5-10.5-7.2-12.3c-0.4-0.1-0.7-0.2-1.1-0.3c-4.6-1.3-9.3-1.6-13.9-2.1
	c-0.7-0.1-1.5-0.2-2.1,0.5c1.8,2.7,1.5,5.3-0.5,7.8c-4.1,5.1-7.3,10.7-10.2,16.6c-3.6,7.5-7.1,14.9-10.6,22.4
	c-1.7,3.6-3.3,7.2-5,10.9C327.7,87.4,327.4,88.3,327,89.3L327,89.3z"/>
<path d="M7.9,74.6c0.9,1.5,1.8,3.1,2.6,4.6c0.9-1.1,20.2-47.1,20.6-49C30,29.9,29,30.4,28,30.7c-0.9,0.3-1.7,0.7-2.6,0.9
	c-2.2,0.6-4.3,0.3-5.9-1.5c-1.1-1.3-2.3-2.6-3.2-4c-1.4-2.2-2.6-4.4-3.7-6.8c-1.3-2.8-0.2-4.4,2.8-5c1-0.2,1.9-0.2,2.9-0.4
	c4-0.5,8-1,12-1.5c5.6-0.7,11.2-1,16.9-0.8c3.8,0.1,7.6,0.1,11.4,0.4c11.8,1,21.5,6,28.1,16.1c3.6,5.5,4.7,11.8,4.3,18.3
	c-0.4,6.2-2.7,11.8-6,17c-4.5,7.1-9.7,13.5-16.2,18.9c-3.2,2.6-6.2,5.4-9.4,7.9C52.2,96.2,44,99.6,35,101c-7,1.1-13.8,0.1-20.2-2.9
	c-2.9-1.3-4.8-3.5-6.1-6.3C7.1,88.5,6.3,85,5.7,81.5c-0.4-2.6,0.8-4.7,1.7-6.9C7.4,74.6,7.9,74.6,7.9,74.6z M55.2,24.2
	c0.2,0.5,0.3,0.9,0.5,1.2c0.9,1.8,0.7,3.6-0.2,5.3c-0.5,0.9-1,1.7-1.5,2.5c-1.8,3-3.8,5.9-5.4,9c-4.3,8.5-8.5,17-12.5,25.6
	c-2.1,4.6-3.9,9.4-5.8,14.1c-0.2,0.6-0.5,1.1,0,1.7c0.6,0.6,1.1,0.2,1.7,0c2.5-1,5-1.9,7.5-2.9c3.5-1.3,6.6-3.1,9.6-5.4
	c6.1-4.7,11.7-10.1,17.1-15.6c2-2.1,3.8-4.5,5.4-7c2.7-4.2,4.9-8.7,5.9-13.6c1.2-5.8-1.2-10.5-6.7-12.8c-1.5-0.6-3.1-1-4.7-1.4
	C62.7,24.2,59.1,23.8,55.2,24.2L55.2,24.2z"/>
<path d="M467.7,80.3c2.2-1.7,3.8-3.3,5-5.3c0.7-1.2,1.4-2.3,2.1-3.5c1.2-1.9,1.4-2,3.9-2.2c0.6,0.9,0.9,1.9,0.5,2.9
	c-1.6,3.9-3.6,7.5-7,10.1c-1.6,1.2-3.3,1.8-5.4,2c-3.2,0.2-6.3,0.7-9.1,2.4c-3.3,2-7,2.9-10.9,3c-4.2,0.1-8.2-1-12-3.1
	c-1.1-0.6-2.2-1.2-3.4-1.8c-2-0.9-4.1-1.1-6.2-0.3c-4.5,1.8-8.7,3.8-11.8,7.8c-2.1,2.7-5.2,3.7-8.5,4.3c-5.6,1.1-10.8-0.6-15.3-3.6
	c-4.7-3.2-7-7.7-5.7-13.7c2.5-11.7,7.7-21.9,16.3-30.3c4.6-4.5,10.2-7.3,16.3-9.3c2.4-0.8,4.7-0.7,6.9,0.6c1.3,0.8,2.6,0.8,4,0.3
	c1.4-0.6,2.9-0.8,4.3-0.4c2.7,0.7,4.4,2.4,4.9,5.2c0.2,1.6,0.2,3.3,0.2,4.9c0,1.6-0.1,3.2-0.2,5.1c0.5-0.5,0.8-0.7,1-1
	c2.6-3.4,5.1-6.9,7.8-10.2c1.6-2,3.5-3.8,5.5-5.4c3.4-2.6,7.1-3.4,11.2-1.7c1.6,0.7,3.2,1.3,4.8,1.9c0.6,0.2,1.3,0.3,2,0.4
	c1,0.1,2,0,2.9,0c3.4,0.1,5.7,2.1,6.4,5.4c0.6,2.6,0.2,5.1-0.2,7.7c-0.5,3.6-1.7,6.9-3.2,10.1c-2.1,4.5-4.2,9-6.3,13.5
	c-0.4,0.8-0.7,1.6-1,2.4C467.4,79,467.6,79.5,467.7,80.3L467.7,80.3z M416.8,78.7c1.3-0.4,1.9-1.1,2.3-2.1
	c2.4-5.9,4.9-11.9,7.3-17.8c0.5-1.3,0.4-2.1-0.2-2.5c-0.6-0.4-1.2-0.1-2.3,0.9c-2.6,2.5-4,5.6-5.2,8.9
	C417.3,70.1,416.4,74.2,416.8,78.7z M408.9,70.6c-1.8,0.4-2.2,0.6-2.4,1.7c-1,5-2,9.9-2.9,14.9c-0.4,2.2,1.2,3.5,3.3,2.5
	c2.1-1,3.8-2.5,5.6-4c-0.8-0.9-1.5-1.6-2.1-2.3c-2-2.6-2.4-5.5-2-8.7C408.4,73.4,408.7,72.1,408.9,70.6L408.9,70.6z M455.5,82.1
	c-0.9-3.7-1.8-7.3-2.8-10.9c0-0.1-0.2-0.1-0.4-0.2c-0.3,0.3-0.7,0.6-1,0.9c-2.2,2.8-3,6.2-3.7,9.7c0,0.2,0,0.4,0,0.6
	c0.1,1.5,0.8,2.1,2.3,1.9C452,83.9,453.8,83.2,455.5,82.1L455.5,82.1z M462.1,74.4c3.4-3.6,7.3-15.2,6.5-19.1
	c-1.2,0.3-1.9,1.2-2.6,2.2c-2,3-3,6.3-3.7,9.7C461.9,69.5,461.8,71.8,462.1,74.4L462.1,74.4z M428.6,72.9c-1.3,1.2-4.5,6.2-4.8,7.4
	C426.9,80.1,429,76.9,428.6,72.9z"/>
<path d="M519.4,69.7c0.6,1.6,1.1,3,1.7,4.3c1.8,4.4,1.2,8.5-1.5,12.3c-2,2.8-4.3,5.2-7.2,7c-3.7,2.2-7.6,2.9-11.8,1.8
	c-2.1-0.6-4.2-1.2-6.4-1.8c-2.2-0.6-4-1.9-5.1-3.9c-1.1-2.1-1.1-4,0.5-5.8c3.3-3.9,6.8-7.6,11-10.6c0.7-0.5,1.5-1.1,2.2-1.7
	c0.7-0.6,1-1.4,0.5-2.3c-0.9-1.6-1.7-3.2-2.7-5.2c-1.4,2.3-3,4.2-4,6.4c-0.3,0.7-0.6,1.3-1,2c-0.3,0.5-0.8,1-1.2,1.3
	c-0.7,0.6-1.5,0.6-2.2,0.2c-0.7-0.3-0.9-1.1-0.8-1.7c0.2-1.2,0.3-2.4,0.9-3.5c1.1-2.3,2.3-4.6,3.6-6.8c1.4-2.5,2.1-5,1.9-7.9
	c-0.4-6.5,2.1-12,6.2-16.8c0.8-0.9,1.6-1.7,2.4-2.5c3.3-3.5,8.3-3.4,11.8-0.5c2.4,2,4.2,4.6,5.9,7.2c0.9,1.4,0.6,2.7-0.9,3.6
	c-1,0.6-2.2,1.2-3.3,1.5c-5.1,1.7-8.4,7.1-6.5,13.2c0.4,1.2,0.7,2.5,1.2,3.7c0.6,1.6,1.8,2.3,3.4,2.1c2.2-0.3,4.5-0.7,6.7-0.9
	c3.4-0.3,6.6,0.3,9.6,1.8c0.4,0.2,0.7,0.4,1.1,0.7c1.2,1,1.2,2.4,0.1,3.5c-1,1-2.3,1.3-3.7,1.2c-0.5,0-1-0.4-1.3-0.8
	c-1.1-1.1-2.4-1.7-4-1.6C524,69.3,521.8,69.5,519.4,69.7L519.4,69.7z M494.4,85c4.2,1.2,9.7-3.8,9.5-8.8
	C500.8,79.2,497.7,82,494.4,85z"/>
<path d="M486,29.4c0.3-1,0.5-1.6,0.7-2.2c1.2-3.6,2.3-7.2,3.5-10.8c1.1-3.5,1.5-7.1,1.3-10.7c-0.2-3.6,1.6-5.9,5.8-4
	c1.2,0.5,2.5,1,3.7,1.7c2.1,1.1,2.9,3,2,5.1c-2.9,7.2-6.5,14-12.2,19.5C489.5,29,488,29.2,486,29.4L486,29.4z"/>
</svg>
